<?xml version="1.0" encoding="UTF-8" standalone="no"?>
<!-- Creator: fig2dev Version 3.2.8 -->
<!-- CreationDate: 2021-03-31 21:01:49 -->
<!-- Magnification: 1.05 -->
<svg	xmlns="http://www.w3.org/2000/svg"
	xmlns:xlink="http://www.w3.org/1999/xlink"
	width="105pt" height="85pt"
	viewBox="766 316 1663 1348">
<g fill="none">
<!-- Line -->
<rect x="810" y="405" width="1485" height="1215" fill="#ffffff"
	stroke="#505050" stroke-width="45px" stroke-linejoin="round"/>
<!-- Line -->
<rect x="990" y="990" width="135" height="540" fill="#8f008f"
	stroke="#000000" stroke-width="30px" stroke-linejoin="round"/>
<!-- Line -->
<rect x="1170" y="720" width="135" height="810" fill="#8f008f"
	stroke="#000000" stroke-width="30px" stroke-linejoin="round"/>
<!-- Line -->
<rect x="1350" y="540" width="135" height="990" fill="#8f008f"
	stroke="#000000" stroke-width="30px" stroke-linejoin="round"/>
<!-- Line -->
<rect x="1530" y="810" width="135" height="720" fill="#8f008f"
	stroke="#000000" stroke-width="30px" stroke-linejoin="round"/>
<!-- Line -->
<rect x="1710" y="900" width="135" height="630" fill="#8f008f"
	stroke="#000000" stroke-width="30px" stroke-linejoin="round"/>
<!-- Line -->
<rect x="1890" y="1215" width="135" height="315" fill="#8f008f"
	stroke="#000000" stroke-width="30px" stroke-linejoin="round"/>
<!-- Line -->
<defs>
<clipPath id="cp0">
	<path clip-rule="evenodd" d="M 766,316 H 2429 V 1664 H 766 z
		M 863,673 938,673 918,522 882,522z"/>
</clipPath>
</defs>
<polyline points=" 900,1530 900,540" clip-path="url(#cp0)"
	stroke="#000000" stroke-width="30px" stroke-linejoin="round" stroke-linecap="square"/>
<!-- Forward arrow to point 900,540 -->
<polygon points=" 938,673 900,553 863,673 938,673"
	stroke="#000000" stroke-width="8px" stroke-miterlimit="8" fill="#000000"/>
<!-- Line -->
<defs>
<clipPath id="cp1">
	<path clip-rule="evenodd" d="M 766,316 H 2429 V 1664 H 766 z
		M 2117,1493 2117,1568 2268,1548 2268,1512z"/>
</clipPath>
</defs>
<polyline points=" 900,1530 2250,1530" clip-path="url(#cp1)"
	stroke="#000000" stroke-width="30px" stroke-linejoin="round" stroke-linecap="square"/>
<!-- Forward arrow to point 2250,1530 -->
<polygon points=" 2117,1568 2237,1530 2117,1493 2117,1568"
	stroke="#000000" stroke-width="8px" stroke-miterlimit="8" fill="#000000"/>
<!-- Line -->
<polyline points=" 2070,540 2070,585"
	stroke="#000000" stroke-width="30px" stroke-linejoin="round" stroke-linecap="round"/>
<!-- Line -->
<polyline points=" 1980,630 2025,630"
	stroke="#000000" stroke-width="30px" stroke-linejoin="round" stroke-linecap="round"/>
<!-- Line -->
<polyline points=" 2115,630 2160,630"
	stroke="#000000" stroke-width="30px" stroke-linejoin="round" stroke-linecap="round"/>
<!-- Line -->
<polyline points=" 2070,675 2070,720"
	stroke="#000000" stroke-width="30px" stroke-linejoin="round" stroke-linecap="round"/>
<!-- Line -->
<polyline points=" 810,405 900,360 2385,360 2385,1575 2295,1620 2295,405 810,405" fill="#8d8d8d"
	stroke="#505050" stroke-width="45px" stroke-linejoin="round" stroke-linecap="round"/>
<!-- Line -->
<polyline points=" 2295,405 2385,360"
	stroke="#505050" stroke-width="45px" stroke-linecap="round"/>
</g>
</svg>
